<svg xmlns="http://www.w3.org/2000/svg"  viewBox="0 0 512 512" width="256px" height="256px"><path d="M 494.43164 16.154297 L 362.74414 42.492188 L 355.77539 38.578125 A 23.99958 23.99958 0 0 0 323.0957 47.746094 L 312.68359 66.275391 L 290.06836 53.568359 L 287.87891 57.466797 L 261.50391 62.740234 A 31.989 31.989 0 0 0 201.28711 67.572266 L 18.158203 16.296875 L 13.841797 31.703125 L 201.39648 84.21875 C 201.40503 84.24958 201.41125 84.279717 201.41992 84.310547 L 202.68555 88.824219 L 179.83008 129.50195 A 39.806 39.806 0 0 0 192.0332 182.05078 L 213.41406 196.75977 L 211.45117 200.25391 A 8 8 0 0 0 214.50781 211.14844 L 237.12305 223.85352 L 229.95898 236.60742 L 214.95703 263.30859 L 179.63281 273.2168 A 7.9997 7.9997 0 0 0 174.0918 283.08008 L 178.41211 298.48633 L 124.49414 313.61133 A 39.99963 39.99963 0 0 0 96.785156 362.92773 L 118.39258 439.95508 L 114.54102 441.03516 A 27.99992 27.99992 0 1 0 129.66797 494.95312 L 164.32812 485.23047 A 23.99946 23.99946 0 0 0 180.95508 455.64062 L 178.79297 447.9375 L 186.49609 445.77734 A 24.0003 24.0003 0 0 0 203.12305 416.18555 L 185.83594 354.56445 L 201.24023 350.24414 L 257.80273 334.37695 A 39.73664 39.73664 0 0 0 281.87109 315.45703 L 303.08789 277.69531 L 341.88086 208.65039 L 358.50586 179.06445 L 358.50781 179.06055 L 375.13086 149.47266 L 375.13281 149.4707 L 376.84961 146.41406 A 63.45247 63.45247 0 0 0 395.20898 181.71484 L 406.4082 170.28516 A 48.00207 48.00207 0 1 1 479.40039 108.57617 L 492.52344 99.423828 A 63.94868 63.94868 0 0 0 409.00977 80.029297 A 23.98155 23.98155 0 0 0 396.92188 61.695312 L 384.16016 54.527344 L 497.56836 31.845703 L 494.43164 16.154297 z M 231.52148 59.683594 A 16.00008 16.00008 0 0 1 236.55273 91.074219 A 8 8 0 0 0 230.99609 96.666016 L 218.69141 141.66211 A 8.0003 8.0003 0 0 0 222.49023 150.74609 L 235.24219 157.91211 L 221.28516 182.75391 L 201.10156 168.86914 A 23.88328 23.88328 0 0 1 193.7793 137.33984 L 218.25781 93.773438 A 8.00068 8.00068 0 0 0 218.98633 87.693359 L 216.82422 79.990234 A 16.00008 16.00008 0 0 1 231.52148 59.683594 z M 56 72 A 63.62069 63.62069 0 0 0 19.423828 83.476562 L 28.576172 96.599609 A 48.00263 48.00263 0 0 1 89.591797 170.28516 L 100.79102 181.71484 A 64.51 64.51 0 0 0 110.73047 169.23242 A 71.98863 71.98863 0 0 1 99.195312 273.60938 L 108.80469 286.40234 A 88.0037 88.0037 0 0 0 117.65625 153.21289 A 64.04436 64.04436 0 0 0 56 72 z M 291.9375 72.970703 L 304.8457 80.224609 L 291.18945 104.5332 A 40.045 40.045 0 0 0 306.46875 158.99805 L 311.04883 161.57227 L 302.25977 177.21289 L 250.05469 147.88086 L 250.05078 147.87891 L 235.77344 139.85742 L 245.3418 104.86719 A 32.05543 32.05543 0 0 0 264.10938 78.537109 L 291.9375 72.970703 z M 318.79492 88.0625 L 352.9668 107.26172 A 23.99958 23.99958 0 0 1 362.13477 139.94141 L 361.81641 140.50781 L 348.47656 164.24805 L 314.30469 145.04883 A 23.99956 23.99956 0 0 1 305.13867 112.37109 L 318.79492 88.0625 z M 48 136 L 48 236.6875 L 29.65625 218.34375 L 18.34375 229.65625 L 48 259.3125 L 48 340.6875 L 29.65625 322.34375 L 18.34375 333.65625 L 48 363.3125 L 48 496 L 64 496 L 64 283.3125 L 109.65625 237.65625 L 98.34375 226.34375 L 64 260.6875 L 64 136 L 48 136 z M 432 136 L 432 236.68555 L 397.65625 202.34375 L 386.34375 213.65625 L 432 259.31445 L 432 340.68555 L 389.65625 298.34375 L 378.34375 309.65625 L 432 363.31445 L 432 423.66406 A 96.12659 96.12659 0 0 1 344 328 A 95.05968 95.05968 0 0 1 367.14844 265.4707 A 88.68391 88.68391 0 0 0 387.1875 286.39648 L 396.79688 273.60547 A 71.463 71.463 0 0 1 368 216 L 352 216 A 88.07648 88.07648 0 0 0 359.01953 250.63672 A 111.98585 111.98585 0 0 0 335.62891 368.62695 A 56.11367 56.11367 0 0 0 296.2168 394.82617 A 47.99546 47.99546 0 0 0 232.23438 435.24219 A 40.0058 40.0058 0 0 0 213.35352 492.00586 L 227.20312 483.99414 A 24.00321 24.00321 0 0 1 263.86914 453.99805 L 274.45703 442.00195 A 39.94562 39.94562 0 0 0 249.00391 432.02344 A 32.03069 32.03069 0 0 1 289.89453 409.56055 A 55.86686 55.86686 0 0 0 287.99609 424 L 303.99609 424 A 40.03862 40.03862 0 0 1 343.04883 384.02344 A 112.13692 112.13692 0 0 0 432 439.71094 L 432 496 L 448 496 L 448 439.7168 A 111.509 111.509 0 0 0 500.31445 422.38867 L 491.68555 408.91406 A 95.52173 95.52173 0 0 1 448 423.65625 L 448 395.31445 L 493.65625 349.65625 L 482.34375 338.34375 L 448 372.68555 L 448 283.31445 L 493.65625 237.65625 L 482.34375 226.34375 L 448 260.68555 L 448 136 L 432 136 z M 324.99805 169.41016 L 340.63867 178.19727 L 331.85156 193.83984 L 316.20898 185.05078 L 324.99805 169.41016 z M 234.44727 261.28125 L 279.67773 286.69531 L 267.92188 307.61914 A 24.2524 24.2524 0 0 1 265.91211 310.59961 L 228.02539 272.71094 L 234.44727 261.28125 z M 182.73438 313.89062 L 189.2168 337 L 143.00195 349.96484 A 7.99929 7.99929 0 0 0 137.45898 359.82812 L 154.74609 421.44922 L 131.63672 427.93164 L 112.18945 358.60742 A 24.00049 24.00049 0 0 1 128.81641 329.01562 L 182.73438 313.89062 z M 170.42969 358.88672 L 176.91211 381.99414 L 161.50781 386.31641 L 155.02539 363.20898 L 170.42969 358.88672 z M 216 360 L 216 376 L 264 376 L 264 360 L 216 360 z M 280 360 L 280 376 L 296 376 L 296 360 L 280 360 z M 338.0918 424.04492 A 48.00314 48.00314 0 0 0 297.59766 500.80469 L 310.39062 491.19531 A 32.00322 32.00322 0 0 1 355.19531 446.39648 L 364.80469 433.60352 A 48.00314 48.00314 0 0 0 338.0918 424.04492 z M 368 464 A 32.036 32.036 0 0 0 336 496 L 352 496 A 16 16 0 0 1 384 496 L 400 496 A 32.036 32.036 0 0 0 368 464 z"/></svg>